<svg width="98" height="78" viewBox="0 0 98 78" fill="none" xmlns="http://www.w3.org/2000/svg">
<path fill-rule="evenodd" clip-rule="evenodd" d="M3.48805 12.6655C3.22361 12.6655 3.0094 12.8804 3.0094 13.1443V14.8898C3.0094 15.155 3.22493 15.3699 3.48805 15.3699H5.22943C5.49124 15.3699 5.70676 15.155 5.70676 14.8898V13.1443C5.70676 12.8804 5.49124 12.6655 5.22943 12.6655H3.48805ZM83.3602 46.4688L46.224 1.16077C45.6157 0.418011 44.8052 0.00286491 43.8466 0.00286491C40.2792 -0.00111413 35.0749 0.000212215 34.0515 0.000212215C32.9871 0.0214338 32.2294 0.742966 32.2294 1.82659V8.64534C32.2294 9.67061 33.0439 10.4717 34.0515 10.4717H38.2919C38.9689 10.4876 39.429 10.993 39.4449 11.6283V13.1443C39.4449 13.8168 38.8988 14.3645 38.2284 14.3645H26.4857C25.7492 14.3645 25.1436 14.972 25.1436 15.7121V20.6713C25.1436 21.4128 25.7465 22.0176 26.4857 22.0176H31.3184C31.8209 22.0176 32.2321 22.4314 32.2321 22.9341V24.653C32.2321 25.3043 32.523 25.5059 33.1378 25.5059H37.8172C38.3157 25.5059 38.7243 25.9144 38.7243 26.4144V29.1321C38.7243 29.473 39.0019 29.7515 39.3404 29.7515H40.783C41.0977 29.7515 41.3568 30.0101 41.3568 30.3271V32.4519C41.3568 32.7676 41.0977 33.0276 40.783 33.0276H38.3778C38.0618 33.0276 37.804 32.7676 37.804 32.4519V31.2914C37.804 30.9505 37.5263 30.672 37.1878 30.672H27.4602C26.8942 30.672 26.4301 31.1375 26.4301 31.7052V34.7929C26.4301 35.1749 26.1247 35.4879 25.7465 35.4972H24.1242C23.8253 35.4906 23.5688 35.3792 23.3559 35.1656L19.6048 31.4041C19.3853 31.1839 19.2742 30.9147 19.2742 30.6043V28.6069C19.2742 28.2726 19.0005 27.9994 18.6686 27.9994H16.4605C16.1273 27.9994 15.8536 28.2713 15.8536 28.6069V30.8205C15.8536 31.1574 16.126 31.4293 16.4605 31.4293H18.4504C18.7612 31.4293 19.0269 31.5407 19.2478 31.7609L22.9989 35.5224C23.2184 35.7413 23.3295 36.0105 23.3295 36.3222V38.317C23.3295 38.6977 23.6521 39.2163 24.0898 39.2163H26.8215C27.1812 39.2163 27.4734 38.9218 27.4734 38.5624V37.244C27.4734 36.8567 27.7894 36.5411 28.1755 36.5411H32.9686C33.3163 36.5411 33.5927 36.7997 33.5927 37.1552V44.0813C33.5927 44.4143 33.3256 44.6954 32.9805 44.6954H31.3012C31.0328 44.6954 30.8133 44.4726 30.8133 44.2047V43.2855C30.8133 43.0362 30.6097 42.8293 30.3585 42.8293H28.4532C28.2032 42.8293 27.9983 43.0349 27.9983 43.2855V44.9673C27.9983 45.2193 28.2046 45.4236 28.4532 45.4236H29.5956C29.864 45.4236 30.0848 45.6451 30.0848 45.9144V48.067C30.0848 48.4636 30.4101 48.7872 30.8028 48.7872H38.5537C38.8221 48.7872 39.0416 48.5657 39.0416 48.2965V47.3773C39.0416 47.128 39.2452 46.921 39.4964 46.921H41.4018C41.6517 46.921 41.8566 47.1266 41.8566 47.3773V49.0604C41.8566 49.3111 41.6517 49.5167 41.4018 49.5167H40.2594C39.9896 49.5167 39.7701 49.7369 39.7701 50.0075V52.1601C39.7701 52.5567 39.4462 52.8803 39.0522 52.8803H34.8078C34.111 52.6907 33.6046 53.4865 33.5914 54.1006V61.7629C33.5914 62.4287 33.0387 62.9831 32.3749 62.9831H30.2223C29.5665 62.9831 29.0257 63.5229 29.0257 64.1821V67.7659C29.0257 68.2142 28.6581 68.5829 28.2112 68.5829H26.3085C25.8946 68.5829 25.5522 68.9251 25.5522 69.3416V72.1442C25.5522 72.5593 25.8933 72.9029 26.3085 72.9029H28.8763C29.2108 72.9029 29.4845 72.6323 29.4885 72.2967L29.5096 70.5154C29.5096 70.1189 29.8322 69.7965 30.2276 69.7965H32.8324C33.1762 69.7965 33.4433 70.0791 33.4433 70.4106C33.4433 72.3312 33.4433 74.2517 33.4433 76.1723C33.4433 77.179 34.2617 78 35.264 78H46.2623C47.2659 78 48.0844 77.179 48.0844 76.1723V26.8296L88.357 77.2944C88.7206 77.748 89.2138 77.9987 89.7942 77.9987H96.178C97.1815 77.9987 98 77.1777 98 76.171V1.82924C98 0.822547 97.1815 0.00286491 96.178 0.00286491H85.1796C84.1774 0.00286491 83.3576 0.823873 83.3576 1.82924V46.4688H83.3602ZM1.30901 37.252C1.04456 37.252 0.830363 37.4668 0.830363 37.7308V39.4763C0.830363 39.7415 1.04589 39.9564 1.30901 39.9564H3.05039C3.3122 39.9564 3.52772 39.7415 3.52772 39.4763V37.7308C3.52772 37.4668 3.3122 37.252 3.05039 37.252H1.30901ZM18.3592 21.8544H15.9779C15.6195 21.8544 15.3247 21.56 15.3247 21.1992V18.8118C15.3247 18.4497 15.6195 18.1552 15.9779 18.1552H18.3592C18.7202 18.1552 19.0137 18.4497 19.0137 18.8118V21.1992C19.0137 21.56 18.7202 21.8544 18.3592 21.8544ZM25.7584 28.392H24.0171C23.7553 28.392 23.5397 28.1771 23.5397 27.9132V26.1677C23.5397 25.9024 23.7553 25.6876 24.0171 25.6876H25.7584C26.0229 25.6876 26.2371 25.9024 26.2371 26.1677V27.9132C26.2371 28.1771 26.0216 28.392 25.7584 28.392ZM21.9411 57.6087C22.2426 57.9098 22.6089 58.0637 23.0346 58.0637H25.7637C26.2186 58.0637 26.5941 58.4377 26.5941 58.8966V61.9313C26.5941 62.3929 26.2186 62.7669 25.7637 62.7669H22.7371C22.2796 62.7669 21.9054 62.3929 21.9054 61.9313V59.1951C21.9054 58.768 21.7547 58.4006 21.4519 58.0982L16.3124 52.9427C16.0096 52.6403 15.6447 52.4877 15.2189 52.4877H12.4911C12.0323 52.4877 11.6595 52.115 11.6595 51.6535V48.6188C11.6595 48.1585 12.0337 47.7858 12.4911 47.7858H15.5177C15.9726 47.7858 16.3481 48.1612 16.3481 48.6188V51.3564C16.3481 51.7834 16.5002 52.1508 16.8016 52.4532L21.9425 57.6087H21.9411ZM6.11798 24.5668C5.75701 24.5668 5.46347 24.8613 5.46347 25.222V27.6094C5.46347 27.9715 5.75701 28.266 6.11798 28.266H8.49932C8.85764 28.266 9.1525 27.9715 9.1525 27.6094V25.222C9.1525 24.8599 8.85764 24.5668 8.49932 24.5668H6.11798ZM9.62322 36.2784C9.26225 36.2784 8.96871 36.5729 8.96871 36.9337V39.3211C8.96871 39.6832 9.26225 39.9776 9.62322 39.9776H12.0046C12.3629 39.9776 12.6577 39.6832 12.6577 39.3211V36.9337C12.6577 36.5729 12.3629 36.2784 12.0046 36.2784H9.62322ZM18.8987 42.3743H20.6176C20.8754 42.3743 21.0883 42.5865 21.0883 42.8465V44.5694C21.0883 44.8307 20.8754 45.0429 20.6176 45.0429H18.8987C18.6382 45.0429 18.4267 44.8307 18.4267 44.5694V42.8465C18.4267 42.5865 18.6382 42.3743 18.8987 42.3743ZM11.4836 62.3106C11.1226 62.3106 10.8291 62.6051 10.8291 62.9659V65.3533C10.8291 65.7154 11.1226 66.0098 11.4836 66.0098H13.8649C14.2233 66.0098 14.5181 65.7154 14.5181 65.3533V62.9659C14.5181 62.6051 14.2233 62.3106 13.8649 62.3106H11.4836ZM0.98242 45.4302C0.440304 45.4302 0 45.8732 0 46.4144V49.9995C0 50.5433 0.441626 50.9863 0.98242 50.9863H4.55906C5.09589 50.9863 5.54016 50.5433 5.54016 49.9995V46.4144C5.54016 45.8732 5.09589 45.4302 4.55906 45.4302H0.98242ZM25.6064 6.23802H27.9877C28.346 6.23802 28.6409 6.53247 28.6409 6.89456V9.28199C28.6409 9.64408 28.346 9.93853 27.9877 9.93853H25.6064C25.2454 9.93853 24.9519 9.64408 24.9519 9.28199V6.89456C24.9519 6.53247 25.2454 6.23802 25.6064 6.23802Z" fill="url(#paint0_linear_51_1663)"/>
<defs>
<linearGradient id="paint0_linear_51_1663" x1="41.8963" y1="67.7911" x2="65.7878" y2="4.32252" gradientUnits="userSpaceOnUse">
<stop stop-color="#15AEE0"/>
<stop offset="1" stop-color="#55EACC"/>
</linearGradient>
</defs>
</svg>
