<?xml version="1.0" encoding="UTF-8"?>
<svg id="Layer_1" data-name="Layer 1" xmlns="http://www.w3.org/2000/svg" xmlns:xlink="http://www.w3.org/1999/xlink" viewBox="0 0 2250.6 424.48">
  <defs>
    <style>
      .cls-1 {
        fill: url(#linear-gradient);
        fill-rule: evenodd;
      }
    </style>
    <linearGradient id="linear-gradient" x1="225.91" y1="373.45" x2="354.76" y2="30.07" gradientUnits="userSpaceOnUse">
      <stop offset="0" stop-color="#15aee0"/>
      <stop offset="1" stop-color="#55eacc"/>
    </linearGradient>
  </defs>
  <path class="cls-1" d="m22.57,41.47c-1.71,0-3.1,1.39-3.1,3.09v11.26c0,1.71,1.39,3.1,3.1,3.1h11.27c1.69,0,3.09-1.39,3.09-3.1v-11.26c0-1.7-1.4-3.09-3.09-3.09h-11.27Zm439.31,215.73L264.24,16.8c-3.24-3.94-7.55-6.14-12.65-6.14-18.99-.02-46.68-.01-52.13-.01-5.66.11-9.69,3.94-9.69,9.69v36.18c0,5.44,4.34,9.69,9.69,9.69h22.57c3.61.09,6.05,2.77,6.13,6.14v8.05c0,3.57-2.91,6.48-6.48,6.48h-62.5c-3.92,0-7.14,3.22-7.14,7.15v26.31c0,3.93,3.21,7.15,7.14,7.15h25.72c2.67,0,4.86,2.19,4.86,4.86v9.12c0,3.46,1.55,4.53,4.82,4.53h24.91c2.65,0,4.83,2.16,4.83,4.82v14.42c0,1.81,1.48,3.29,3.28,3.29h7.68c1.68,0,3.05,1.37,3.05,3.05v11.27c0,1.68-1.38,3.05-3.05,3.05h-12.8c-1.68,0-3.05-1.38-3.05-3.05v-6.16c0-1.81-1.47-3.29-3.28-3.29h-51.77c-3.01,0-5.48,2.47-5.48,5.48v16.38c0,2.02-1.63,3.69-3.64,3.74h-8.63c-1.59-.04-2.96-.63-4.09-1.76l-19.96-19.96c-1.17-1.17-1.76-2.59-1.76-4.24v-10.6c0-1.77-1.46-3.22-3.23-3.22h-11.75c-1.78,0-3.23,1.44-3.23,3.22v11.74c0,1.79,1.45,3.23,3.23,3.23h10.59c1.65,0,3.07.59,4.24,1.76l19.96,19.96c1.17,1.16,1.76,2.59,1.76,4.24v10.59c0,2.02,1.72,4.77,4.04,4.77h14.54c1.91,0,3.47-1.56,3.47-3.47v-6.99c0-2.05,1.68-3.73,3.74-3.73h25.51c1.85,0,3.32,1.37,3.32,3.26v36.75c0,1.77-1.42,3.26-3.26,3.26h-8.93c-1.43,0-2.6-1.18-2.6-2.6v-4.88c0-1.32-1.09-2.42-2.42-2.42h-10.14c-1.33,0-2.42,1.09-2.42,2.42v8.92c0,1.34,1.1,2.42,2.42,2.42h6.08c1.43,0,2.6,1.17,2.6,2.61v11.42c0,2.1,1.73,3.82,3.82,3.82h41.25c1.43,0,2.6-1.17,2.6-2.6v-4.88c0-1.33,1.09-2.42,2.42-2.42h10.14c1.33,0,2.42,1.09,2.42,2.42v8.93c0,1.33-1.09,2.42-2.42,2.42h-6.08c-1.43,0-2.6,1.17-2.6,2.6v11.42c0,2.11-1.72,3.82-3.82,3.82h-22.59c-3.71-1.01-6.4,3.22-6.48,6.48v40.65c0,3.53-2.94,6.48-6.48,6.48h-11.46c-3.49,0-6.37,2.86-6.37,6.36v19.01c0,2.38-1.96,4.33-4.33,4.33h-10.13c-2.2,0-4.03,1.81-4.03,4.03v14.87c0,2.2,1.82,4.03,4.03,4.03h13.66c1.78,0,3.24-1.44,3.26-3.22l.11-9.45c0-2.1,1.72-3.82,3.82-3.82h13.86c1.83,0,3.25,1.5,3.25,3.26,0,10.19,0,20.38,0,30.57,0,5.34,4.35,9.69,9.69,9.69h58.53c5.34,0,9.69-4.36,9.69-9.69V153l214.34,267.75c1.93,2.41,4.56,3.74,7.65,3.74h33.98c5.34,0,9.7-4.36,9.7-9.69V20.35c0-5.34-4.36-9.69-9.7-9.69h-58.53c-5.34,0-9.69,4.36-9.69,9.69v236.84h0ZM8.47,200.09c-1.71,0-3.1,1.39-3.1,3.09v11.26c0,1.71,1.39,3.1,3.1,3.1h11.27c1.69,0,3.09-1.39,3.09-3.1v-11.26c0-1.7-1.4-3.09-3.09-3.09h-11.27Zm110.35-99.34h-15.41c-2.32,0-4.23-1.9-4.23-4.23v-15.4c0-2.34,1.91-4.24,4.23-4.24h15.41c2.34,0,4.24,1.9,4.24,4.24v15.4c0,2.33-1.9,4.23-4.24,4.23h0Zm47.88,42.18h-11.27c-1.69,0-3.09-1.39-3.09-3.09v-11.26c0-1.71,1.4-3.1,3.09-3.1h11.27c1.71,0,3.1,1.39,3.1,3.1v11.26c0,1.7-1.39,3.09-3.1,3.09h0Zm-24.7,188.5c1.95,1.95,4.32,2.93,7.08,2.93h17.67c2.95,0,5.37,2.41,5.37,5.37v19.58c0,2.98-2.43,5.39-5.37,5.39h-19.59c-2.96,0-5.38-2.41-5.38-5.39v-17.65c0-2.75-.98-5.12-2.94-7.08l-33.26-33.27c-1.96-1.95-4.32-2.93-7.08-2.93h-17.66c-2.97,0-5.38-2.4-5.38-5.38v-19.58c0-2.97,2.42-5.37,5.38-5.37h19.58c2.95,0,5.37,2.42,5.37,5.37v17.66c0,2.75.99,5.13,2.93,7.08l33.27,33.27h0ZM39.59,118.25c-2.33,0-4.24,1.9-4.24,4.23v15.41c0,2.33,1.9,4.24,4.24,4.24h15.41c2.32,0,4.23-1.9,4.23-4.24v-15.41c0-2.33-1.91-4.23-4.23-4.23h-15.41Zm22.69,75.56c-2.34,0-4.24,1.9-4.24,4.23v15.4c0,2.33,1.9,4.24,4.24,4.24h15.41c2.32,0,4.23-1.9,4.23-4.24v-15.4c0-2.33-1.91-4.23-4.23-4.23h-15.41Zm60.03,39.33h11.12c1.67,0,3.05,1.37,3.05,3.05v11.11c0,1.68-1.38,3.06-3.05,3.06h-11.12c-1.68,0-3.06-1.37-3.06-3.06v-11.11c0-1.68,1.37-3.05,3.06-3.05h0Zm-47.99,128.62c-2.34,0-4.24,1.9-4.24,4.23v15.4c0,2.33,1.9,4.24,4.24,4.24h15.41c2.32,0,4.23-1.9,4.23-4.24v-15.4c0-2.33-1.91-4.23-4.23-4.23h-15.41ZM6.36,252.86c-3.5,0-6.36,2.85-6.36,6.35v23.13c0,3.51,2.85,6.36,6.36,6.36h23.15c3.48,0,6.35-2.86,6.35-6.36v-23.13c0-3.49-2.87-6.35-6.35-6.35H6.36ZM165.72,0h15.41c2.32,0,4.23,1.9,4.23,4.23v15.4c0,2.34-1.91,4.24-4.23,4.24h-15.41c-2.34,0-4.24-1.9-4.24-4.24V4.23c0-2.33,1.9-4.23,4.24-4.23Z"/>
  <g>
    <path d="m1067.08,317.63l-14.24,50.41h-6.93l-10.37-36.84c-.45-1.57-.71-3.28-.81-5.13h-.14c-.14,1.73-.45,3.42-.91,5.06l-10.44,36.91h-6.86l-14.77-50.41h6.5l10.72,38.67c.45,1.62.73,3.3.84,5.06h.18c.12-1.24.48-2.93,1.09-5.06l11.14-38.67h5.66l10.69,38.95c.38,1.34.66,2.91.84,4.71h.14c.09-1.22.41-2.84.95-4.85l10.3-38.81h6.4Z"/>
    <path d="m1102.73,351.48h-25.42c.09,4.01,1.17,7.1,3.23,9.28s4.9,3.27,8.51,3.27c4.05,0,7.78-1.34,11.18-4.01v5.41c-3.16,2.3-7.35,3.45-12.55,3.45s-9.08-1.63-11.99-4.9-4.36-7.87-4.36-13.8c0-5.6,1.59-10.17,4.76-13.69s7.12-5.29,11.83-5.29,8.36,1.52,10.93,4.57,3.87,7.28,3.87,12.69v3.02Zm-5.91-4.89c-.02-3.33-.83-5.92-2.41-7.77s-3.78-2.78-6.59-2.78-5.03.97-6.93,2.92-3.07,4.49-3.52,7.63h19.44Z"/>
    <path d="m1117.35,362.84h-.14v5.2h-5.77v-53.3h5.77v23.62h.14c2.84-4.78,6.98-7.17,12.45-7.17,4.62,0,8.23,1.61,10.85,4.83s3.92,7.54,3.92,12.96c0,6.02-1.46,10.85-4.39,14.47s-6.94,5.43-12.02,5.43c-4.76,0-8.36-2.02-10.79-6.05Zm-.14-14.52v5.03c0,2.98.97,5.5,2.9,7.58s4.39,3.11,7.37,3.11c3.49,0,6.23-1.34,8.21-4.01s2.97-6.39,2.97-11.14c0-4.01-.93-7.15-2.78-9.42s-4.36-3.41-7.52-3.41c-3.35,0-6.05,1.17-8.09,3.5s-3.06,5.26-3.06,8.77Z"/>
    <path d="m1174.27,368.04v-50.41h13.92c17.77,0,26.65,8.19,26.65,24.57,0,7.78-2.47,14.03-7.4,18.76s-11.54,7.08-19.81,7.08h-13.36Zm5.91-45.07v39.73h7.52c6.61,0,11.75-1.77,15.43-5.31s5.52-8.55,5.52-15.05c0-12.91-6.87-19.37-20.6-19.37h-7.88Z"/>
    <path d="m1252.92,351.48h-25.42c.09,4.01,1.17,7.1,3.23,9.28s4.9,3.27,8.51,3.27c4.05,0,7.78-1.34,11.18-4.01v5.41c-3.16,2.3-7.35,3.45-12.55,3.45s-9.08-1.63-11.99-4.9-4.36-7.87-4.36-13.8c0-5.6,1.59-10.17,4.76-13.69s7.12-5.29,11.83-5.29,8.36,1.52,10.93,4.57,3.87,7.28,3.87,12.69v3.02Zm-5.91-4.89c-.02-3.33-.83-5.92-2.41-7.77s-3.78-2.78-6.59-2.78-5.03.97-6.93,2.92-3.07,4.49-3.52,7.63h19.44Z"/>
    <path d="m1259.45,366.74v-6.19c3.14,2.32,6.6,3.48,10.37,3.48,5.06,0,7.59-1.69,7.59-5.06,0-.96-.22-1.78-.65-2.44s-1.02-1.26-1.76-1.78-1.61-.98-2.6-1.39-2.07-.84-3.22-1.28c-1.59-.63-2.99-1.27-4.2-1.92s-2.21-1.37-3.02-2.18-1.42-1.73-1.83-2.76-.62-2.24-.62-3.62c0-1.69.39-3.18,1.16-4.48s1.8-2.39,3.09-3.27,2.76-1.54,4.41-1.99,3.36-.67,5.12-.67c3.12,0,5.91.54,8.37,1.62v5.84c-2.65-1.73-5.7-2.6-9.14-2.6-1.08,0-2.05.12-2.92.37s-1.61.59-2.23,1.04-1.1.98-1.44,1.6-.51,1.31-.51,2.06c0,.94.17,1.72.51,2.36s.84,1.2,1.49,1.69,1.45.94,2.39,1.34,2,.83,3.2,1.3c1.59.61,3.02,1.24,4.29,1.88s2.34,1.37,3.23,2.18,1.58,1.74,2.06,2.79.72,2.31.72,3.76c0,1.78-.39,3.33-1.18,4.64s-1.83,2.4-3.15,3.27-2.82,1.51-4.54,1.93-3.5.63-5.38.63c-3.7,0-6.91-.71-9.63-2.14Z"/>
    <path d="m1295.14,322.9c-1.03,0-1.91-.35-2.64-1.05s-1.09-1.59-1.09-2.67.36-1.97,1.09-2.69,1.61-1.07,2.64-1.07,1.95.36,2.69,1.07,1.11,1.61,1.11,2.69-.37,1.91-1.11,2.64-1.63,1.09-2.69,1.09Zm2.81,45.14h-5.77v-36h5.77v36Z"/>
    <path d="m1340.35,365.16c0,13.22-6.33,19.83-18.98,19.83-4.45,0-8.34-.84-11.67-2.53v-5.77c4.05,2.25,7.92,3.38,11.6,3.38,8.86,0,13.29-4.71,13.29-14.13v-3.94h-.14c-2.74,4.59-6.87,6.89-12.38,6.89-4.48,0-8.08-1.6-10.81-4.8s-4.1-7.49-4.1-12.88c0-6.12,1.47-10.98,4.41-14.59s6.97-5.41,12.08-5.41,8.45,1.95,10.79,5.84h.14v-4.99h5.77v33.12Zm-5.77-13.39v-5.31c0-2.86-.97-5.31-2.9-7.35s-4.34-3.06-7.22-3.06c-3.56,0-6.35,1.29-8.37,3.88s-3.02,6.22-3.02,10.88c0,4.01.97,7.21,2.9,9.62s4.49,3.6,7.68,3.6,5.87-1.15,7.89-3.45,3.04-5.24,3.04-8.82Z"/>
    <path d="m1381.9,368.04h-5.77v-20.53c0-7.64-2.79-11.46-8.37-11.46-2.88,0-5.27,1.08-7.15,3.25s-2.83,4.9-2.83,8.21v20.53h-5.77v-36h5.77v5.98h.14c2.72-4.55,6.66-6.82,11.81-6.82,3.94,0,6.95,1.27,9.04,3.81s3.13,6.22,3.13,11.02v22.01Z"/>
    <path d="m1457.45,368.85c-1.34,0-2.51-.18-3.53-.54s-1.96-.88-2.83-1.55-1.71-1.48-2.51-2.44-1.66-2.05-2.55-3.27c-.94,1.01-2.02,1.98-3.25,2.92s-2.6,1.77-4.1,2.5-3.14,1.31-4.92,1.74-3.71.65-5.8.65c-2.53,0-4.85-.32-6.96-.95s-3.91-1.56-5.41-2.79-2.67-2.75-3.5-4.55-1.25-3.88-1.25-6.22c0-3.59,1.02-6.65,3.06-9.19s4.92-4.62,8.65-6.24c-.7-.52-1.41-1.12-2.11-1.81s-1.33-1.48-1.88-2.36-1-1.85-1.34-2.92-.51-2.23-.51-3.5c0-1.85.33-3.49,1-4.92s1.59-2.64,2.76-3.62,2.55-1.73,4.15-2.23,3.32-.76,5.17-.76,3.5.25,5.01.76,2.81,1.22,3.9,2.16,1.94,2.06,2.55,3.38.91,2.78.91,4.39c0,2.81-.8,5.15-2.41,7.01s-4.01,3.45-7.22,4.76c1.62.63,3.08,1.41,4.39,2.32s2.53,1.93,3.64,3.06,2.15,2.33,3.11,3.62,1.91,2.62,2.85,4.01c1.9-2.65,3.33-5.57,4.29-8.75s1.44-6.53,1.44-10.02c0-.89-.05-1.73-.16-2.51s-.25-1.56-.44-2.34h5.59c.19.77.3,1.51.33,2.2s.08,1.52.12,2.48c0,2.13-.22,4.28-.67,6.43s-1.04,4.25-1.79,6.28-1.62,3.96-2.62,5.78-2.04,3.5-3.15,5.03c.82,1.12,1.57,2.1,2.25,2.94s1.37,1.53,2.06,2.09,1.41.98,2.14,1.25,1.58.4,2.51.4c.7,0,1.42-.09,2.14-.28s1.48-.42,2.25-.7v5.34c-.84.33-1.73.57-2.65.74s-1.83.25-2.72.25Zm-29.5-4.99c1.78,0,3.42-.19,4.92-.58s2.88-.9,4.15-1.55,2.41-1.39,3.45-2.25,1.97-1.75,2.81-2.69c-1.43-2.23-2.75-4.13-3.96-5.71s-2.43-2.95-3.66-4.1-2.54-2.13-3.94-2.95-3.01-1.58-4.83-2.29c-1.48.59-2.84,1.24-4.08,1.95s-2.31,1.56-3.22,2.53-1.61,2.1-2.13,3.39-.77,2.8-.77,4.54c0,1.59.29,3,.88,4.22s1.39,2.23,2.41,3.04,2.21,1.42,3.57,1.83,2.82.62,4.39.62Zm8.79-35.89c0-1.17-.22-2.17-.65-2.99s-.98-1.5-1.65-2.04-1.41-.93-2.23-1.18-1.63-.37-2.43-.37c-2.3,0-4.13.62-5.5,1.86s-2.07,2.93-2.09,5.06c0,.96.15,1.86.44,2.71s.7,1.63,1.23,2.36,1.14,1.37,1.85,1.93,1.45,1.04,2.25,1.44c2.95-1.03,5.16-2.23,6.61-3.6s2.18-3.1,2.18-5.19Z"/>
    <path d="m1550.37,317.63l-14.24,50.41h-6.93l-10.37-36.84c-.45-1.57-.71-3.28-.81-5.13h-.14c-.14,1.73-.45,3.42-.91,5.06l-10.44,36.91h-6.86l-14.77-50.41h6.5l10.72,38.67c.45,1.62.73,3.3.84,5.06h.18c.12-1.24.48-2.93,1.09-5.06l11.14-38.67h5.66l10.69,38.95c.38,1.34.66,2.91.84,4.71h.14c.09-1.22.41-2.84.95-4.85l10.3-38.81h6.4Z"/>
    <path d="m1586.02,351.48h-25.42c.09,4.01,1.17,7.1,3.23,9.28s4.9,3.27,8.51,3.27c4.05,0,7.78-1.34,11.18-4.01v5.41c-3.16,2.3-7.35,3.45-12.55,3.45s-9.08-1.63-11.99-4.9-4.36-7.87-4.36-13.8c0-5.6,1.59-10.17,4.76-13.69s7.12-5.29,11.83-5.29,8.36,1.52,10.93,4.57,3.87,7.28,3.87,12.69v3.02Zm-5.91-4.89c-.02-3.33-.83-5.92-2.41-7.77s-3.78-2.78-6.59-2.78-5.03.97-6.93,2.92-3.07,4.49-3.52,7.63h19.44Z"/>
    <path d="m1600.65,362.84h-.14v5.2h-5.77v-53.3h5.77v23.62h.14c2.84-4.78,6.98-7.17,12.45-7.17,4.62,0,8.23,1.61,10.85,4.83s3.92,7.54,3.92,12.96c0,6.02-1.46,10.85-4.39,14.47s-6.94,5.43-12.02,5.43c-4.76,0-8.36-2.02-10.79-6.05Zm-.14-14.52v5.03c0,2.98.97,5.5,2.9,7.58s4.39,3.11,7.37,3.11c3.49,0,6.23-1.34,8.21-4.01s2.97-6.39,2.97-11.14c0-4.01-.93-7.15-2.78-9.42s-4.36-3.41-7.52-3.41c-3.35,0-6.05,1.17-8.09,3.5s-3.06,5.26-3.06,8.77Z"/>
    <path d="m1657.56,368.04v-50.41h13.92c17.77,0,26.65,8.19,26.65,24.57,0,7.78-2.47,14.03-7.4,18.76s-11.54,7.08-19.81,7.08h-13.36Zm5.91-45.07v39.73h7.52c6.61,0,11.75-1.77,15.43-5.31s5.52-8.55,5.52-15.05c0-12.91-6.87-19.37-20.6-19.37h-7.88Z"/>
    <path d="m1736.21,351.48h-25.42c.09,4.01,1.17,7.1,3.23,9.28s4.9,3.27,8.51,3.27c4.05,0,7.78-1.34,11.18-4.01v5.41c-3.16,2.3-7.35,3.45-12.55,3.45s-9.08-1.63-11.99-4.9-4.36-7.87-4.36-13.8c0-5.6,1.59-10.17,4.76-13.69s7.12-5.29,11.83-5.29,8.36,1.52,10.93,4.57,3.87,7.28,3.87,12.69v3.02Zm-5.91-4.89c-.02-3.33-.83-5.92-2.41-7.77s-3.78-2.78-6.59-2.78-5.03.97-6.93,2.92-3.07,4.49-3.52,7.63h19.44Z"/>
    <path d="m1773.23,332.04l-14.34,36h-5.66l-13.64-36h6.33l9.14,26.16c.68,1.92,1.1,3.6,1.27,5.03h.14c.23-1.8.61-3.43,1.12-4.89l9.56-26.3h6.08Z"/>
    <path d="m1808.35,351.48h-25.42c.09,4.01,1.17,7.1,3.23,9.28s4.9,3.27,8.51,3.27c4.05,0,7.78-1.34,11.18-4.01v5.41c-3.16,2.3-7.35,3.45-12.55,3.45s-9.08-1.63-11.99-4.9-4.36-7.87-4.36-13.8c0-5.6,1.59-10.17,4.76-13.69s7.12-5.29,11.83-5.29,8.36,1.52,10.93,4.57,3.87,7.28,3.87,12.69v3.02Zm-5.91-4.89c-.02-3.33-.83-5.92-2.41-7.77s-3.78-2.78-6.59-2.78-5.03.97-6.93,2.92-3.07,4.49-3.52,7.63h19.44Z"/>
    <path d="m1822.83,368.04h-5.77v-53.3h5.77v53.3Z"/>
    <path d="m1849.55,368.88c-5.32,0-9.57-1.68-12.74-5.04s-4.76-7.82-4.76-13.38c0-6.05,1.65-10.77,4.96-14.17s7.77-5.1,13.39-5.1,9.56,1.65,12.57,4.96,4.52,7.89,4.52,13.75-1.62,10.34-4.87,13.8-7.6,5.19-13.06,5.19Zm.42-32.84c-3.7,0-6.63,1.26-8.79,3.78s-3.23,5.99-3.23,10.42,1.09,7.63,3.27,10.09,5.1,3.69,8.75,3.69,6.59-1.21,8.6-3.62,3.01-5.85,3.01-10.3-1-7.97-3.01-10.41-4.87-3.66-8.6-3.66Z"/>
    <path d="m1882.6,362.84h-.14v21.76h-5.77v-52.56h5.77v6.33h.14c2.84-4.78,6.98-7.17,12.45-7.17,4.64,0,8.26,1.61,10.86,4.83s3.9,7.54,3.9,12.96c0,6.02-1.46,10.85-4.39,14.47s-6.94,5.43-12.02,5.43c-4.66,0-8.26-2.02-10.79-6.05Zm-.14-14.52v5.03c0,2.98.97,5.5,2.9,7.58s4.39,3.11,7.37,3.11c3.49,0,6.23-1.34,8.21-4.01s2.97-6.39,2.97-11.14c0-4.01-.93-7.15-2.78-9.42s-4.36-3.41-7.52-3.41c-3.35,0-6.05,1.17-8.09,3.5s-3.06,5.26-3.06,8.77Z"/>
    <path d="m1970.14,368.04h-5.77v-20.67c0-3.98-.62-6.87-1.85-8.65s-3.3-2.67-6.21-2.67c-2.46,0-4.55,1.12-6.28,3.38s-2.58,4.95-2.58,8.09v20.53h-5.77v-21.38c0-7.08-2.73-10.62-8.19-10.62-2.53,0-4.62,1.06-6.26,3.18s-2.46,4.88-2.46,8.28v20.53h-5.77v-36h5.77v5.7h.14c2.55-4.36,6.28-6.54,11.18-6.54,2.46,0,4.61.69,6.43,2.06s3.08,3.17,3.76,5.4c2.67-4.97,6.66-7.45,11.95-7.45,7.92,0,11.88,4.89,11.88,14.66v22.18Z"/>
    <path d="m2009.97,351.48h-25.42c.09,4.01,1.17,7.1,3.23,9.28s4.9,3.27,8.51,3.27c4.05,0,7.78-1.34,11.18-4.01v5.41c-3.16,2.3-7.35,3.45-12.55,3.45s-9.08-1.63-11.99-4.9-4.36-7.87-4.36-13.8c0-5.6,1.59-10.17,4.76-13.69s7.12-5.29,11.83-5.29,8.36,1.52,10.93,4.57,3.87,7.28,3.87,12.69v3.02Zm-5.91-4.89c-.02-3.33-.83-5.92-2.41-7.77s-3.78-2.78-6.59-2.78-5.03.97-6.93,2.92-3.07,4.49-3.52,7.63h19.44Z"/>
    <path d="m2048.57,368.04h-5.77v-20.53c0-7.64-2.79-11.46-8.37-11.46-2.88,0-5.27,1.08-7.15,3.25s-2.83,4.9-2.83,8.21v20.53h-5.77v-36h5.77v5.98h.14c2.72-4.55,6.66-6.82,11.81-6.82,3.94,0,6.95,1.27,9.04,3.81s3.13,6.22,3.13,11.02v22.01Z"/>
    <path d="m2076.13,367.69c-1.36.75-3.15,1.12-5.38,1.12-6.3,0-9.46-3.52-9.46-10.55v-21.3h-6.19v-4.92h6.19v-8.79l5.77-1.86v10.65h9.07v4.92h-9.07v20.29c0,2.41.41,4.14,1.23,5.17s2.18,1.55,4.08,1.55c1.45,0,2.71-.4,3.76-1.2v4.92Z"/>
  </g>
  <g>
    <path d="m836.05,54.82v195.42h-39.06l-76.48-132c.09,3.34.19,5.54.29,6.59.38,3.34.57,6.16.57,8.45v116.97h-35.65V54.82h49.34l66.48,115.25c-.57-5.73-.86-10.07-.86-13.03V54.82h35.36Z"/>
    <path d="m1000.4,195.98c-1.62,17.08-8.38,30.9-20.26,41.45-11.88,10.55-27.23,15.82-46.03,15.82-20.43,0-37.06-6.75-49.89-20.26-12.84-13.5-19.26-31.57-19.26-54.19s6.56-40.97,19.69-55.05c13.12-14.08,30.66-21.12,52.61-21.12,17.66,0,32.28,5.3,43.88,15.89,11.6,10.59,18.01,23.86,19.26,39.8l-39.8,2.29c-1.34-17.37-8.88-26.06-22.62-26.06-16.89,0-25.34,13.84-25.34,41.52,0,18.42,2.36,30.11,7.09,35.08,4.72,4.96,10.47,7.44,17.25,7.44,13.17,0,21.04-8.35,23.62-25.05l39.8,2.43Z"/>
    <path d="m1083.22,102.64c22.03,0,39.21,7.21,51.56,21.62,12.35,14.41,18.52,32.45,18.52,54.12s-6.41,39.2-19.24,53.47c-12.82,14.27-29.87,21.4-51.13,21.4s-37.07-7.06-49.41-21.19c-12.35-14.12-18.52-32.26-18.52-54.4,0-15.37,2.79-28.42,8.37-39.16,5.58-10.74,13.23-19.4,22.95-25.98s22.03-9.88,36.9-9.88Zm1.15,27.92c-8.09,0-14.18,3.13-18.27,9.38-4.09,6.25-6.14,18.68-6.14,37.29,0,17.09,1.95,29.35,5.85,36.79s9.99,11.17,18.27,11.17c7.23,0,13.08-3.17,17.56-9.52,4.47-6.35,6.71-18.44,6.71-36.29,0-18.99-1.97-31.88-5.92-38.65-3.95-6.78-9.97-10.17-18.06-10.17Z"/>
    <path d="m1303.19,54.82v195.42h-39.37v-22.62c-9.75,17.09-23.04,25.63-39.86,25.63s-28.56-6.51-37.78-19.54c-9.22-13.03-13.83-31.09-13.83-54.19s4.61-42.88,13.84-56.48c9.22-13.6,22.58-20.4,40.08-20.4,15.39,0,27.24,6.06,35.56,18.18V54.82h41.37Zm-41.37,111.38c0-22.71-6.89-34.07-20.68-34.07-16.47,0-24.7,16.03-24.7,48.1,0,28.54,7.71,42.81,23.12,42.81,5.93,0,11.13-2.58,15.58-7.73,4.45-5.15,6.68-12.5,6.68-22.05v-27.06Z"/>
    <path d="m1468.26,185.1h-93.06c-.1,2.58-.14,4.82-.14,6.73,0,10.31,2.74,18.09,8.23,23.34,5.49,5.25,12.05,7.87,19.69,7.87,14.22,0,22.76-7.59,25.63-22.76l38.65,2.86c-10.79,33.41-32.69,50.11-65.71,50.11-14.41,0-26.65-2.89-36.72-8.66-10.07-5.77-18.38-14.2-24.91-25.27-6.54-11.07-9.81-24.34-9.81-39.8,0-23,6.56-41.56,19.69-55.69,13.12-14.12,29.99-21.19,50.61-21.19,18.61,0,34.57,6.56,47.89,19.69,13.31,13.12,19.97,34.05,19.97,62.78Zm-93.2-24.77h51.4c-1.34-19.85-9.5-29.78-24.48-29.78-16.03,0-25.01,9.93-26.92,29.78Z"/>
    <path d="m1537.41,250.24h-44.24v-44.24h44.24v44.24Z"/>
    <path d="m1762.03,105.65l-43.7,144.6h-37.55l-22.9-93.06-22.85,93.06h-35.62l-44.83-144.6h44.49l23.58,88.33,22.13-88.33h38.59l21.17,88.91,24.58-88.91h32.9Z"/>
    <path d="m1909.06,185.1h-93.06c-.1,2.58-.14,4.82-.14,6.73,0,10.31,2.74,18.09,8.23,23.34,5.49,5.25,12.05,7.87,19.69,7.87,14.22,0,22.76-7.59,25.63-22.76l38.65,2.86c-10.79,33.41-32.69,50.11-65.71,50.11-14.41,0-26.65-2.89-36.72-8.66-10.07-5.77-18.38-14.2-24.91-25.27-6.54-11.07-9.81-24.34-9.81-39.8,0-23,6.56-41.56,19.69-55.69,13.12-14.12,29.99-21.19,50.61-21.19,18.61,0,34.57,6.56,47.89,19.69,13.31,13.12,19.97,34.05,19.97,62.78Zm-93.2-24.77h51.4c-1.34-19.85-9.5-29.78-24.48-29.78-16.03,0-25.01,9.93-26.92,29.78Z"/>
    <path d="m1978.64,54.82v69.01c7.63-14.12,19.56-21.19,35.79-21.19s29.73,6.71,39.37,20.11c9.64,13.41,14.46,31.81,14.46,55.19s-4.96,40.71-14.88,54.55c-9.92,13.84-24.23,20.76-42.92,20.76-9.73,0-17.64-1.67-23.75-5.01-6.1-3.34-12.26-10.07-18.46-20.19-2.69,2.77-5.87,10.17-9.52,22.19h-22.76V54.82h42.66Zm0,138.15c0,10.12,2.12,17.75,6.37,22.91,4.25,5.15,9.33,7.73,15.25,7.73,7.06,0,12.88-3.12,17.47-9.38,4.58-6.25,6.87-18.4,6.87-36.44,0-20.52-2.36-33.4-7.09-38.65-4.72-5.25-10.09-7.87-16.11-7.87-6.97,0-12.5,2.96-16.61,8.88-4.1,5.92-6.16,14.32-6.16,25.2v27.63Z"/>
  </g>
</svg>